<svg id="Layer_1" data-name="Layer 1" xmlns="http://www.w3.org/2000/svg" width="300.22" height="119.82" viewBox="0 0 300.22 119.82"><title>controls</title><g id="controls"><g id="play_pause" data-name="play pause"><g id="play"><g id="Polygon"><path d="M16.5,8.5a.52.52,0,0,1,.2.8c-.1.1-.1.2-.2.2l-11.4,7c-.5.3-.8.1-.8-.5V2c0-.5.4-.8.8-.5Z" transform="translate(0 0.82)" fill="gold" stroke="#000" stroke-miterlimit="10"/></g></g></g><g id="pause"><path d="M24,1h2.2a.94.94,0,0,1,1,1V16a.94.94,0,0,1-1,1H24a.94.94,0,0,1-1-1V2A1,1,0,0,1,24,1Z" transform="translate(0 0.82)" fill="gold" stroke="#000" stroke-miterlimit="10"/><path d="M33.8,1H36a.94.94,0,0,1,1,1V16a.94.94,0,0,1-1,1H33.8a.94.94,0,0,1-1-1V2A1,1,0,0,1,33.8,1Z" transform="translate(0 0.82)" fill="gold" stroke="#000" stroke-miterlimit="10"/></g><g id="fullscreen"><g id="enter"><path d="M81,1.4a.94.94,0,0,1,1-1h5.4c.6,0,.7.3.3.7l-6,6c-.4.4-.7.3-.7-.3Z" transform="translate(0 0.82)" fill="gold" stroke="#000" stroke-miterlimit="10"/><path d="M81,17.2a.94.94,0,0,0,1,1h5.4c.6,0,.7-.3.3-.7l-6-6c-.4-.4-.7-.3-.7.3Z" transform="translate(0 0.82)" fill="gold" stroke="#000" stroke-miterlimit="10"/><path d="M98.8,1.4a.94.94,0,0,0-1-1H92.4c-.6,0-.7.3-.3.7l6,6c.4.4.7.3.7-.3Z" transform="translate(0 0.82)" fill="gold" stroke="#000" stroke-miterlimit="10"/><path d="M98.8,17.2a.94.94,0,0,1-1,1H92.4c-.6,0-.7-.3-.3-.7l6-6c.4-.4.7-.3.7.3Z" transform="translate(0 0.82)" fill="gold" stroke="#000" stroke-miterlimit="10"/></g></g><g id="exit"><path d="M112.7,5a.94.94,0,0,0,1,1h4.1c.6,0,.7-.3.3-.7L113.4.6c-.4-.4-.7-.3-.7.3Z" transform="translate(0 0.82)" fill="gold" stroke="#000" stroke-miterlimit="10"/><path d="M105.6,6a.94.94,0,0,0,1-1V.9c0-.6-.3-.7-.7-.3l-4.7,4.7c-.4.4-.3.7.3.7Z" transform="translate(0 0.82)" fill="gold" stroke="#000" stroke-miterlimit="10"/><path d="M106.6,13.1a.94.94,0,0,0-1-1h-4.1c-.6,0-.7.3-.3.7l4.7,4.7c.4.4.7.3.7-.3Z" transform="translate(0 0.82)" fill="gold" stroke="#000" stroke-miterlimit="10"/><path d="M113.7,12.1a.94.94,0,0,0-1,1v4.1c0,.5.3.7.7.3l4.7-4.7c.4-.4.3-.7-.3-.7Z" transform="translate(0 0.82)" fill="gold" stroke="#000" stroke-miterlimit="10"/></g><g id="volume"><path d="M67,5.8a3,3,0,0,1-1.8.6H62a.94.94,0,0,0-1,1v5.7a.94.94,0,0,0,1,1h4.2c.3.2.5.4.8.6l3.5,2.6a.47.47,0,0,0,.8-.4V3.5a.47.47,0,0,0-.8-.4Z" transform="translate(0 0.82)" fill="gold" stroke="#000" stroke-miterlimit="10"/><g id="volume-2"><g id="soundbars"><path d="M73.9,2.5s3.9-.8,3.9,7.7S73.9,18,73.9,18" transform="translate(0 0.82)" fill="gold" stroke="#000" stroke-linecap="round" stroke-width="1.5"/><path d="M72.6,6.4s2.6-.4,2.6,3.8-2.6,3.9-2.6,3.9" transform="translate(0 0.82)" fill="gold" stroke="#000" stroke-linecap="round" stroke-width="1.5"/></g></g></g><g id="closed_captions" data-name="closed captions"><path d="M128.7,8.6c-6.2-4.2-6.5,7.8,0,3.9" transform="translate(0 0.82)" fill="gold" stroke="#000"/><path d="M135.2,8.6c-6.2-4.2-6.5,7.8,0,3.9" transform="translate(0 0.82)" fill="gold" stroke="#000"/><path d="M122.2,3.4h15.7V16.5H122.2ZM120.8,2V17.7h18.3V2Z" transform="translate(0 0.82)" fill="gold" stroke="#000" stroke-miterlimit="10"/></g><g id="muted"><path d="M47,5.8a3,3,0,0,1-1.8.6H42a.94.94,0,0,0-1,1v5.7a.94.94,0,0,0,1,1h4.2c.3.2.5.4.8.6l3.5,2.6a.47.47,0,0,0,.8-.4V3.5a.47.47,0,0,0-.8-.4Z" transform="translate(0 0.82)" fill="gold" stroke="#000" stroke-miterlimit="10"/><line x1="52.8" y1="7.82" x2="58.2" y2="13.22" fill="none" stroke="#000" stroke-linecap="round" stroke-width="2"/><line x1="52.8" y1="13.22" x2="58.2" y2="7.82" fill="none" stroke="#000" stroke-linecap="round" stroke-width="2"/></g><g id="skip_forward" data-name="skip forward"><g id="play_pause-2" data-name="play pause-2"><g id="play-2"><path id="Polygon-2" d="M192.2,2.2l-4.3,2.2V0Z" transform="translate(0 0.82)" fill="gold" stroke="#000" stroke-miterlimit="10"/></g></g><g id="play_pause-3" data-name="play pause-3"><g id="play-3"><path id="Polygon-3" d="M194.9,2.2l-4.3,2.2V0Z" transform="translate(0 0.82)" fill="gold" stroke="#000" stroke-miterlimit="10"/></g></g><path d="M190,2.2a8.15,8.15,0,0,0-8.2,8.1h0" transform="translate(0 0.82)" fill="gold" stroke="#000" stroke-width="2"/><path d="M181.8,9.8a8.15,8.15,0,0,0,8.1,8.2h0" transform="translate(0 0.82)" fill="gold" stroke="#000" stroke-width="2"/><path d="M189.6,18a8.15,8.15,0,0,0,8.2-8.1h0" transform="translate(0 0.82)" fill="gold" stroke="#000" stroke-width="2"/></g><g id="skipback"><path d="M162.7,9.7a8.15,8.15,0,0,0,8.1,8.2h0" transform="translate(0 0.82)" fill="gold" stroke="#000" stroke-width="2"/><path d="M170.4,17.8a8.15,8.15,0,0,0,8.2-8.1h0" transform="translate(0 0.82)" fill="gold" stroke="#000" stroke-width="2"/><path d="M178.5,10a8.15,8.15,0,0,0-8.1-8.2h0" transform="translate(0 0.82)" fill="gold" stroke="#000" stroke-width="2"/><g id="play_pause-4" data-name="play pause-4"><g id="play-4"><path id="Polygon-4" d="M166.6,2.2l4.3,2.2V0Z" transform="translate(0 0.82)" fill="gold" stroke="#000" stroke-miterlimit="10"/></g></g><g id="play_pause-5" data-name="play pause-5"><g id="play-5"><path id="Polygon-5" d="M163.9,2.2l4.3,2.2V0Z" transform="translate(0 0.82)" fill="gold" stroke="#000" stroke-miterlimit="10"/></g></g></g><g id="close_captions" data-name="close captions"><path d="M143.2,3h14a2,2,0,0,1,2,2V15a2,2,0,0,1-2,2h-14a2,2,0,0,1-2-2V5A2,2,0,0,1,143.2,3Z" transform="translate(0 0.82)" fill="gold" stroke="#000" stroke-miterlimit="10"/><path d="M146.4,13.8a2.81,2.81,0,0,1-2.1-1,3.91,3.91,0,0,1,.1-4.8c.5-.6,2-1.7,4.6.2l-.6.8c-1.4-1-2.6-1.1-3.3-.3a3,3,0,0,0-.1,3.5c.7.9,1.9.8,3.4-.1l.5.9A5.28,5.28,0,0,1,146.4,13.8Z" transform="translate(0 0.82)" fill="gold" stroke="#000" stroke-miterlimit="10"/><path d="M153.9,13.8a2.81,2.81,0,0,1-2.1-1,3.91,3.91,0,0,1,.1-4.8c.5-.6,2-1.7,4.6.2L156,9c-1.4-1-2.6-1.1-3.3-.3a3,3,0,0,0-.1,3.5c.7.9,1.9.8,3.4-.1l.5.9A6.07,6.07,0,0,1,153.9,13.8Z" transform="translate(0 0.82)" fill="gold" stroke="#000" stroke-miterlimit="10"/></g><path d="M218.6,9.4a1.19,1.19,0,0,0-1-1.2l-1.9-.5a.76.76,0,0,1-.6-.8c0-.1.1-.2.1-.3l1-1.6a1.54,1.54,0,0,0-.1-1.6h0a1.36,1.36,0,0,0-1.6-.2l-1.6,1a.68.68,0,0,1-1-.2.37.37,0,0,1-.1-.3l-.5-1.8a1.36,1.36,0,0,0-1.2-1h0a1.19,1.19,0,0,0-1.2,1l-.5,1.8a.76.76,0,0,1-.8.6c-.1,0-.2-.1-.3-.1l-1.6-1a1.38,1.38,0,0,0-1.6.2h0a1.36,1.36,0,0,0-.2,1.6l1,1.6a.68.68,0,0,1-.2,1,.37.37,0,0,1-.3.1l-1.9.5a1.36,1.36,0,0,0-1,1.2h0a1.19,1.19,0,0,0,1,1.2l1.9.5a.76.76,0,0,1,.6.8c0,.1-.1.2-.1.3l-1,1.6a1.38,1.38,0,0,0,.2,1.6h0a1.36,1.36,0,0,0,1.6.2l1.6-1a.68.68,0,0,1,1,.2.37.37,0,0,1,.1.3l.5,1.9a1.36,1.36,0,0,0,1.2,1h0a1.19,1.19,0,0,0,1.2-1l.5-1.9a.76.76,0,0,1,.8-.6c.1,0,.2.1.3.1l1.6,1a1.38,1.38,0,0,0,1.6-.2h0a1.36,1.36,0,0,0,.2-1.6l-1-1.6a.68.68,0,0,1,.2-1,.37.37,0,0,1,.3-.1l1.9-.5a1.2,1.2,0,0,0,.9-1.2Zm-5.6,0a2.8,2.8,0,0,1-2.8,2.8,2.86,2.86,0,0,1-2.8-2.8,2.8,2.8,0,0,1,2.8-2.8h0A2.8,2.8,0,0,1,213,9.4Z" transform="translate(0 0.82)" fill="gold" stroke="#000" stroke-miterlimit="10"/><path d="M225,2.8h10a2,2,0,0,1,2,2v10a2,2,0,0,1-2,2H225a2,2,0,0,1-2-2V4.8A2,2,0,0,1,225,2.8Z" transform="translate(0 0.82)" fill="gold" stroke="#000" stroke-miterlimit="10"/><g id="loop"><path d="M254.2,6.5a5.61,5.61,0,0,1-.9,8,5.61,5.61,0,0,1-8-.9,5.63,5.63,0,0,1,.2-7.4l-1.6-1.6a8,8,0,1,0,11.7,10.9,7.84,7.84,0,0,0,.2-10.6Z" transform="translate(0 0.82)" fill="gold" stroke="#000" stroke-miterlimit="10"/><g id="play_pause-6" data-name="play pause-6"><g id="play-6"><g id="Polygon-6"><path d="M251.3,3.4a.78.78,0,0,1,.6-.9h.3l5.5.8c.5.1.7.5.3.8l-5,5c-.4.4-.8.3-.8-.3Z" transform="translate(0 0.82)" fill="gold" stroke="#000" stroke-miterlimit="10"/></g></g></g></g><g id="loop_off" data-name="loop off" opacity="0.5"><path d="M274.4,6.8a5.61,5.61,0,0,1-.9,8,5.7,5.7,0,0,1-8-.9,5.63,5.63,0,0,1,.2-7.4l-1.6-1.6a8,8,0,1,0,11.7,10.9A7.84,7.84,0,0,0,276,5.2Z" transform="translate(0 0.82)" fill="gold" stroke="#000" stroke-miterlimit="10"/><g id="play_pause-7" data-name="play pause-7"><g id="play-7"><g id="Polygon-7"><path d="M271.5,3.6a.78.78,0,0,1,.6-.9h.3l5.5.8c.5.1.7.5.3.8l-5,5c-.4.4-.8.3-.8-.3Z" transform="translate(0 0.82)" fill="gold" stroke="#000" stroke-miterlimit="10"/></g></g></g></g></g><g id="big_play" data-name="big play"><g id="big_play_-_light" data-name="big play - light"><g id="Polygon-8" opacity="0.75"><path d="M60.3,77a1,1,0,0,1,.6,1.4.9.9,0,0,1-.6.6L30,96.5c-1,.6-1.7.1-1.7-1v-35c0-1.1.8-1.5,1.7-1Z" transform="translate(0 0.82)" fill="gold" stroke="#000" stroke-miterlimit="10"/></g><path id="Ellipse" d="M2.5,79A37.5,37.5,0,1,1,40,116.5,37.51,37.51,0,0,1,2.5,79Z" transform="translate(0 0.82)" fill="gold" stroke="#000" stroke-width="5" opacity="0.75" style="isolation:isolate"/></g><g id="big_play_hover" data-name="big play hover"><g id="Polygon2"><path d="M140.3,77a1,1,0,0,1,.6,1.4.9.9,0,0,1-.6.6L110,96.5c-1,.6-1.7.1-1.7-1v-35c0-1.1.8-1.5,1.7-1Z" transform="translate(0 0.82)" fill="gold" stroke="#000" stroke-miterlimit="10"/></g><path id="Ellipse2" d="M82.5,79A37.5,37.5,0,1,1,120,116.5,37.51,37.51,0,0,1,82.5,79Z" transform="translate(0 0.82)" fill="gold" stroke="#000" stroke-width="5"/></g><g id="Loading"><circle cx="201.9" cy="47.92" r="8.1" fill="gold" stroke="#000" stroke-miterlimit="10"/><circle cx="233.9" cy="79.82" r="5" fill="gold" stroke="#000" stroke-miterlimit="10" opacity="0.4" style="isolation:isolate"/><circle cx="201.9" cy="111.72" r="6" fill="gold" stroke="#000" stroke-miterlimit="10" opacity="0.6" style="isolation:isolate"/><circle cx="170.1" cy="79.82" r="7" fill="gold" stroke="#000" stroke-miterlimit="10" opacity="0.8" style="isolation:isolate"/><circle cx="178.3" cy="57.12" r="7.5" fill="gold" stroke="#000" stroke-miterlimit="10" opacity="0.9" style="isolation:isolate"/><circle cx="226.3" cy="56.92" r="4.5" fill="gold" stroke="#000" stroke-miterlimit="10" opacity="0.3" style="isolation:isolate"/><circle cx="225.8" cy="103.62" r="5.5" fill="gold" stroke="#000" stroke-miterlimit="10" opacity="0.5" style="isolation:isolate"/><circle cx="178.3" cy="103.62" r="6.5" fill="gold" stroke="#000" stroke-miterlimit="10" opacity="0.7" style="isolation:isolate"/></g></g><g id="Guides"><g id="play_pause-8" data-name="play pause-8"><g id="play-8"><g id="Polygon-9"><path d="M298.8,9.6a.81.81,0,0,1-.9.7c-.1,0-.2,0-.2-.1l-4.9-1.8c-.5-.2-.5-.6-.1-.9L299,4c.5-.3.8-.1.7.5Z" transform="translate(0 0.82)" fill="gold" stroke="#000" stroke-miterlimit="10"/></g></g></g><path id="replay" d="M290.2,16.1a5.92,5.92,0,0,1-2.9-.7,5.77,5.77,0,0,1-3.2-5.2,6.21,6.21,0,0,1,6.3-6A6.15,6.15,0,0,1,296,8.3l.1-.1,2.1,1.1a8.1,8.1,0,0,0-9.1-6.9,8.24,8.24,0,0,0-7,7.9,8.06,8.06,0,0,0,4.3,7,10.21,10.21,0,0,0,3.8,1,8.24,8.24,0,0,0,6.6-3.3l-1.8-.9A7.18,7.18,0,0,1,290.2,16.1Z" transform="translate(0 0.82)" fill="gold" stroke="#000" stroke-miterlimit="10"/></g></svg>